<svg width="360" height="149" viewBox="0 0 360 149" fill="none" xmlns="http://www.w3.org/2000/svg">
<rect width="360" height="149" fill="#F8F3E9"/>
<path d="M189.891 49.8313C193.598 49.8313 196.603 46.8241 196.603 43.1146C196.603 39.4051 193.598 36.3979 189.891 36.3979C186.185 36.3979 183.18 39.4051 183.18 43.1146C183.18 46.8241 186.185 49.8313 189.891 49.8313Z" fill="white"/>
<path d="M197.191 48.8939C199.929 48.8939 202.149 46.6723 202.149 43.9318C202.149 41.1913 199.929 38.9697 197.191 38.9697C194.452 38.9697 192.232 41.1913 192.232 43.9318C192.232 46.6723 194.452 48.8939 197.191 48.8939Z" fill="white"/>
<path d="M245.263 46.7331C248.655 46.7331 251.406 43.9805 251.406 40.5851C251.406 37.1896 248.655 34.437 245.263 34.437C241.87 34.437 239.119 37.1896 239.119 40.5851C239.119 43.9805 241.87 46.7331 245.263 46.7331Z" fill="white"/>
<path d="M238.396 45.772C240.903 45.772 242.935 43.7385 242.935 41.23C242.935 38.7215 240.903 36.688 238.396 36.688C235.889 36.688 233.857 38.7215 233.857 41.23C233.857 43.7385 235.889 45.772 238.396 45.772Z" fill="white"/>
<path d="M253.333 46.3525C255.84 46.3525 257.872 44.319 257.872 41.8106C257.872 39.3021 255.84 37.2686 253.333 37.2686C250.827 37.2686 248.795 39.3021 248.795 41.8106C248.795 44.319 250.827 46.3525 253.333 46.3525Z" fill="white"/>
<path d="M96.5067 50.261C99.8996 50.261 102.65 47.5084 102.65 44.1129C102.65 40.7174 99.8996 37.9648 96.5067 37.9648C93.1138 37.9648 90.3633 40.7174 90.3633 44.1129C90.3633 47.5084 93.1138 50.261 96.5067 50.261Z" fill="white"/>
<path d="M89.8257 47.9072C92.3322 47.9072 94.3642 45.8737 94.3642 43.3652C94.3642 40.8568 92.3322 38.8232 89.8257 38.8232C87.3191 38.8232 85.2871 40.8568 85.2871 43.3652C85.2871 45.8737 87.3191 47.9072 89.8257 47.9072Z" fill="white"/>
<path d="M98.3984 32.3828L98.6304 125.641H172.611L172.379 32.6149L98.3984 32.3828Z" fill="#CEEEEA"/>
<path d="M95.1523 23.7954L174.699 24.0275L174.93 32.6148H95.1523V23.7954ZM95.1523 49.7895H174.699V52.3425H95.1523V49.7895Z" fill="#BAC6F2"/>
<path d="M98.6301 52.1103H172.147V54.6633H98.6301V52.1103ZM98.3982 31.9185H171.915V34.4714H98.3982V31.9185ZM95.6152 125.451H175.161V128.004H95.6152V125.451ZM105.819 37.4886L103.268 40.2737V44.2192L105.588 46.5401L165.189 46.7722L167.508 44.6834V40.2737L164.725 37.4886H105.819Z" fill="#BAC6F2"/>
<path d="M98.3984 60.4654H103.037V63.4825H98.6304L98.3984 60.4654ZM98.3984 90.637H101.181V93.6542H98.6304L98.3984 90.637ZM123.445 86.2273H130.866V89.0124H123.445V86.2273ZM119.039 90.8691H126.46V93.6542H119.039V90.8691ZM115.456 73.7687H122.877V76.5538H115.456V73.7687ZM132.49 91.1012H139.911V93.8863H132.49V91.1012ZM119.347 57.7313H126.768V60.5164H119.347V57.7313ZM161.015 89.4766H168.436V92.2616H161.015V89.4766ZM162.175 55.3594H169.596V58.1445H162.175V55.3594Z" fill="#BAC6F2"/>
<path d="M167.649 98.7583H154.182C153.743 98.7583 153.387 99.1147 153.387 99.5544V125.386C153.387 125.826 153.743 126.182 154.182 126.182H167.649C168.089 126.182 168.445 125.826 168.445 125.386V99.5544C168.445 99.1147 168.089 98.7583 167.649 98.7583Z" fill="#BAC6F2"/>
<path d="M166.236 101.847H155.624C155.184 101.847 154.828 102.204 154.828 102.643V105.447C154.828 105.887 155.184 106.243 155.624 106.243H166.236C166.675 106.243 167.031 105.887 167.031 105.447V102.643C167.031 102.204 166.675 101.847 166.236 101.847Z" fill="white"/>
<path d="M102.7 69.7653H104.215L121.126 69.7491C121.126 69.7491 122.053 64.6431 118.343 61.6259C114.632 58.6088 110.789 58.6088 108.006 60.0013C105.223 61.3939 102.596 63.4827 102.7 69.7653Z" fill="#BAC6F2"/>
<path d="M104.214 69.7654L104.086 82.1381H119.824V69.4521L103.961 69.1968L104.214 69.7654Z" fill="#BAC6F2"/>
<path d="M104.085 82.1382L103.051 82.064V84.1574H120.841L120.753 82.064L104.085 82.1382Z" fill="#BAC6F2"/>
<path d="M106.045 70.4569H111.539V75.5188H106.045V70.4569ZM112.657 70.3989H117.907V75.4608H112.657V70.3989ZM112.629 76.7698H117.981V81.8317H112.629V76.7698ZM106.096 76.7675H111.59V81.8293H106.096V76.7675Z" fill="white"/>
<path d="M104.92 62.2249L104.275 69.8003L107.42 69.6982L108.06 59.9898L106.07 61.1573L105.161 61.9696M119.173 62.3827L119.765 69.8026L116.885 69.7028L116.321 60.2753L118.097 61.4334L118.953 62.1344M109.067 62.0763L108.638 69.7283L111.381 69.7747L111.996 59.1172L110.808 59.1497L109.375 59.4189M115.514 62.0462L115.901 69.6982L113.434 69.7446L112.912 59.159L114.206 59.4305L115.287 59.7763" fill="#9CCDC7"/>
<path d="M126.196 69.9279H127.711L144.622 69.9117C144.622 69.9117 145.549 64.8057 141.839 61.7885C138.128 58.7714 134.285 58.7714 131.502 60.1639C128.719 61.5565 126.094 63.6522 126.196 69.9279Z" fill="#BAC6F2"/>
<path d="M127.71 69.9255L127.583 82.3006H143.318V69.6122L127.455 69.3569L127.71 69.9255Z" fill="#BAC6F2"/>
<path d="M127.583 82.3007L126.549 82.2241V84.3199H144.337L144.251 82.2241L127.583 82.3007Z" fill="#BAC6F2"/>
<path d="M129.543 70.6171H135.037V75.679H129.543V70.6171ZM136.152 70.5591H141.403V75.621H136.152V70.5591ZM136.125 76.9299H141.477V81.9918H136.125V76.9299ZM129.594 76.9276H135.088V81.9895H129.594V76.9276Z" fill="white"/>
<path d="M128.416 62.385L127.771 69.9604L130.916 69.8606L131.556 60.1523L129.569 61.3197L128.657 62.132M142.67 62.5428L143.261 69.9651L140.381 69.8653L139.817 60.4355L141.594 61.5936L142.449 62.2945M132.563 62.2365L132.134 69.8885L134.877 69.9349L135.492 59.2773L134.304 59.3098L132.871 59.5814M139.012 62.2086L139.397 69.8583L136.932 69.9047L136.408 59.3214L137.704 59.5907L138.783 59.9365" fill="#9CCDC7"/>
<path d="M149.372 69.9279H150.887L167.798 69.9117C167.798 69.9117 168.725 64.8057 165.015 61.7885C161.304 58.7714 157.461 58.7714 154.678 60.1639C151.895 61.5565 149.268 63.6522 149.372 69.9279Z" fill="#BAC6F2"/>
<path d="M150.884 69.9255L150.756 82.3006H166.494V69.6122L150.629 69.3569L150.884 69.9255Z" fill="#BAC6F2"/>
<path d="M150.757 82.3007L149.723 82.2241V84.3199H167.513L167.425 82.2241L150.757 82.3007Z" fill="#BAC6F2"/>
<path d="M152.717 70.6171H158.211V75.679H152.717V70.6171ZM159.326 70.5591H164.577V75.621H159.326V70.5591ZM159.301 76.9299H164.653V81.9918H159.301V76.9299ZM152.768 76.9276H158.262V81.9895H152.768V76.9276Z" fill="white"/>
<path d="M151.592 62.385L150.947 69.9604L154.092 69.8606L154.73 60.1523L152.742 61.3197L151.831 62.132M165.845 62.5428L166.437 69.9651L163.554 69.8653L162.993 60.4355L164.769 61.5936L165.625 62.2945M155.739 62.2365L155.31 69.8885L158.053 69.9349L158.665 59.2773L157.48 59.3098L156.047 59.5814M162.186 62.2086L162.573 69.8583L160.106 69.9047L159.584 59.3214L160.878 59.5907L161.956 59.9365" fill="#9CCDC7"/>
<path d="M102.753 105.157H106.763L151.522 105.141C151.522 105.141 155.156 99.4962 145.335 96.4141C135.513 93.3319 119.36 94.2092 112.002 95.6319C104.643 97.0546 102.479 98.7489 102.753 105.157Z" fill="#9CCDC7"/>
<path d="M103.341 105.271L102.949 125.493H151.393V104.76L102.557 104.342L103.341 105.271Z" fill="#9CCDC7"/>
<path d="M105.689 105.544H148.373V115.842H105.689V105.544ZM120.741 117.502H133.034V122.564H120.741V117.502ZM105.982 117.59H118.275V122.652H105.982V117.59ZM135.676 117.59H147.97V122.652H135.676V117.59Z" fill="white"/>
<path d="M107.285 97.2309L106.408 104.544L110.585 104.449L111.327 95.5877L108.878 96.1749L107.524 96.7319M114.177 97.3052L113.475 104.474L117.665 104.421L118.428 94.7081L116.383 94.9495L114.534 95.1212M145.381 97.1775L146.07 104.491L142.786 104.396L142.204 95.5344L144.129 96.1215L145.193 96.6786M139.931 97.2518L140.516 104.421L137.025 104.368L136.392 94.6547L138.095 94.8961L139.632 95.0679M133.524 97.1961L134.108 104.365L130.618 104.314L129.968 94.3716L131.622 94.4528L133.197 94.534M125.935 97.463L126.52 104.632L123.029 104.581L122.38 94.6408L124.119 94.5805L125.754 94.5456" fill="#CEEEEA"/>
<path d="M178.357 80.9336L178.137 127.393L256.586 127.605V80.502L178.357 80.9336Z" fill="#CEEEEA"/>
<path d="M177.702 125.23H257.249V127.783H177.702V125.23ZM174.02 80.8896H261.019V83.9672H174.02V80.8896Z" fill="#BAC6F2"/>
<path d="M175.395 81.3908C175.395 81.3908 176.322 67.5583 185.367 67.2937C192.816 67.0755 230.996 67.2635 244.148 67.3842C251.893 67.4561 258.526 73.1864 259.47 80.8802C259.49 81.0489 259.509 81.2191 259.526 81.3908H175.395Z" fill="#9CCDC7"/>
<path d="M251.8 101.836H256.438V104.853H252.032L251.8 101.836ZM253.713 89.2331H256.496V92.2503H253.945L253.713 89.2331ZM181.748 111.757H189.17V114.542H181.748V111.757ZM179.123 99.524H186.544V102.309H179.123V99.524ZM183.733 89.6161H191.155V92.4011H183.733V89.6161ZM210.123 87.1745H217.544V89.9595H210.123V87.1745ZM247.568 96.4372H254.989V99.2223H247.568V96.4372ZM243.553 117.945H250.974V120.73H243.553V117.945ZM225.935 84.9487H233.356V87.7338H225.935V84.9487Z" fill="#BAC6F2"/>
<path d="M192.597 104.86H196.607L241.366 104.843C241.366 104.843 245 99.1989 235.178 96.1167C225.357 93.0346 209.204 93.9119 201.845 95.3346C194.487 96.7573 192.323 98.4515 192.597 104.86Z" fill="#9CCDC7"/>
<path d="M193.184 104.973L192.792 125.195H241.237V104.463L192.4 104.045L193.184 104.973Z" fill="#9CCDC7"/>
<path d="M210.585 105.247H238.218V115.545H210.585V105.247ZM210.585 117.204H222.879V122.266H210.585V117.204ZM195.826 105.44H208.12V122.354H195.826V105.44ZM225.523 117.293H237.816V122.354H225.523V117.293Z" fill="white"/>
<path d="M197.128 96.9337L196.254 104.247L200.431 104.152L201.17 95.2905L198.724 95.8777L197.369 96.4347M204.021 97.0079L203.32 104.177L207.511 104.124L208.272 94.4109L206.228 94.6522L204.38 94.824M235.227 96.8803L235.913 104.193L232.632 104.098L232.05 95.2371L233.972 95.8243L235.037 96.3813M229.777 96.9546L230.359 104.124L226.869 104.07L226.236 94.3575L227.938 94.5989L229.478 94.7706M223.367 96.8989L223.951 104.068L220.461 104.017L219.812 94.0767L221.465 94.1556L223.04 94.2368M215.781 97.1681L216.363 104.335L212.873 104.284L212.223 94.3436L213.963 94.2832L215.598 94.2507" fill="#CEEEEA"/>
<path d="M264.355 124.762H264.352C263.755 124.762 263.271 125.246 263.271 125.843V128.104C263.271 128.701 263.755 129.185 264.352 129.185H264.355C264.951 129.185 265.435 128.701 265.435 128.104V125.843C265.435 125.246 264.951 124.762 264.355 124.762Z" fill="#BAC6F2"/>
<path d="M271.312 124.762H271.309C270.712 124.762 270.229 125.246 270.229 125.843V128.104C270.229 128.701 270.712 129.185 271.309 129.185H271.312C271.908 129.185 272.392 128.701 272.392 128.104V125.843C272.392 125.246 271.908 124.762 271.312 124.762Z" fill="#BAC6F2"/>
<path d="M262.427 108.68C262.427 108.68 260.748 126.122 261.068 126.361C261.388 126.6 274.178 126.76 274.498 126.521C274.818 126.282 273.538 108.84 273.299 108.759C273.06 108.678 262.826 108.441 262.427 108.68Z" fill="#9CCDC7"/>
<path d="M271.578 113.081H264.544C264.301 113.081 264.104 113.277 264.104 113.52C264.104 113.763 264.301 113.96 264.544 113.96H271.578C271.821 113.96 272.019 113.763 272.019 113.52C272.019 113.277 271.821 113.081 271.578 113.081Z" fill="white"/>
<path d="M272.379 115.879H263.587C263.344 115.879 263.146 116.076 263.146 116.319C263.146 116.562 263.344 116.759 263.587 116.759H272.379C272.622 116.759 272.82 116.562 272.82 116.319C272.82 116.076 272.622 115.879 272.379 115.879Z" fill="white"/>
</svg>
